inDegrees=yes
name=ik_20190930-094711-sensor_data_quaternions_Walking_00_30
DataType=double
version=3
OpenSimVersion=4.1
endheader
time	pelvis_tilt	pelvis_list	pelvis_rotation	pelvis_tx	pelvis_ty	pelvis_tz	hip_flexion_r	hip_adduction_r	hip_rotation_r	knee_angle_r	knee_angle_r_beta	ankle_angle_r	subtalar_angle_r	mtp_angle_r	hip_flexion_l	hip_adduction_l	hip_rotation_l	knee_angle_l	knee_angle_l_beta	ankle_angle_l	subtalar_angle_l	mtp_angle_l	lumbar_extension	lumbar_bending	lumbar_rotation	arm_flex_r	arm_add_r	arm_rot_r	elbow_flex_r	pro_sup_r	wrist_flex_r	wrist_dev_r	arm_flex_l	arm_add_l	arm_rot_l	elbow_flex_l	pro_sup_l	wrist_flex_l	wrist_dev_l
122	0.07359935455017404	-0.137980410901825	152.3683142831146	0	0.9399999999999999	0	0.3584686582973057	-0.1312333430416983	0.325835325295444	0.5613756110301629	0.009797852752871337	0.3549130102551144	0	0	0.4211597729451572	0.1460719261694587	-0.4188927726391403	0.5928910568977269	0.01034790104849437	0.3189241500494177	0	0	0	0	0	0	-1.259809849753446	0	17.83327060586199	17.73792682513442	0	0	0	-1.259809849753446	0	17.83327060586199	17.73792682513442	0	0
122.0078125	0.02219176152389579	-0.1418493546725266	152.3764193470516	0	0.9399999999999999	0	0.2812512079695864	-0.1505566626375003	0.3157107778091589	0.5341392491679489	0.009322488562111089	0.3629078925413702	0	0	0.355692692862502	0.1824349884656921	-0.3884661144041523	0.5921386990721741	0.01033476992728533	0.3427797631499788	0	0	0	0	0	0	-1.268840391300788	0	18.00125207247318	17.88470587282243	0	0	0	-1.268840391300788	0	18.00125207247318	17.88470587282243	0	0
122.015625	0.02269933135842924	-0.1355851241054324	152.3712997022494	0	0.9399999999999999	0	0.2946628053245445	-0.1564468519887707	0.3098903100057007	0.5595123988388465	0.00976533356546957	0.3730239496107948	0	0	0.358688567064244	0.1738078485753911	-0.397978768380338	0.5909877836797902	0.01031468266427635	0.3424044304966825	0	0	0	0	0	0	-1.269299317610164	0	18.00920109022618	17.89160036426253	0	0	0	-1.269299317610164	0	18.00920109022618	17.89160036426253	0	0
122.0234375	0.02984458950498865	-0.1423425831630258	152.3625142609493	0	0.9399999999999999	0	0.2728693953755913	-0.1574525485201357	0.3262991615681886	0.5354466507696588	0.009345307024706775	0.3965394801392339	0	0	0.3793734801988428	0.1800656613056257	-0.3971160283743232	0.581381708857886	0.01014702503044119	0.2923643621291702	0	0	0	0	0	0	-3.701988326688097	0	53.80465417994196	46.46849197207832	0	0	0	-3.701988326688097	0	53.80465417994196	46.46849197207832	0	0
122.03125	0.02761932727045604	-0.1392149139527429	152.3540978483018	0	0.9399999999999999	0	0.2944451412469701	-0.1555319058395248	0.3198534042051456	0.5628257831340492	0.009823163030804728	0.3922770521360982	0	0	0.3698666590759365	0.175368540386614	-0.4057378973310772	0.5816543469157457	0.01015178346221709	0.3117399437812178	0	0	0	0	0	0	-3.702388975898184	0	53.80619551166862	46.46822789005414	0	0	0	-3.702388975898184	0	53.80619551166862	46.46822789005414	0	0
122.0390625	0.04859248426195908	-0.1365888261885926	152.3447521660442	0	0.9399999999999999	0	0.3120161435371651	-0.1452163711519262	0.3278629623960758	0.5465629787571014	0.009539323548819244	0.3626130509109581	0	0	0.382807182003824	0.1607359132315629	-0.4160900586049801	0.5871377363143668	0.01024748666139198	0.3647553129611143	0	0	0	0	0	0	-3.704281111464079	0	53.81360103491971	46.4669360617954	0	0	0	-3.704281111464079	0	53.81360103491971	46.4669360617954	0	0
122.046875	0.04394381513225482	-0.1369012156882815	152.3390509231041	0	0.9399999999999999	0	0.3192360395263401	-0.1408174489346181	0.3318111488481241	0.5647293068661218	0.009856385787319245	0.3686790810565175	0	0	0.3768050644446265	0.1647826465741445	-0.4120551509568853	0.5894785066345964	0.01028834081051295	0.3557805997065926	0	0	0	0	0	0	-3.704559039426752	0	53.8146624087825	46.46675574719848	0	0	0	-3.704559039426752	0	53.8146624087825	46.46675574719848	0	0
122.0546875	0.04901200700210864	-0.1403244687836008	152.3354568279299	0	0.9399999999999999	0	0.3083618106617392	-0.1382043963684712	0.3383961691242219	0.5569579398944838	0.009720749846283423	0.3752726747000535	0	0	0.3828531170678963	0.1664621852990647	-0.4117293654337882	0.5936695960716876	0.01036148912043574	0.3468947913390498	0	0	0	0	0	0	-3.705560350836169	0	53.81858472771758	46.46607054864582	0	0	0	-3.705560350836169	0	53.81858472771758	46.46607054864582	0	0
122.0625	0.04501650566326443	-0.1378034316964291	152.3292845158536	0	0.9399999999999999	0	0.312837568595251	-0.1391182348624584	0.3370864511606055	0.5644760859764518	0.009851966249059674	0.3768816936749931	0	0	0.3808911182226726	0.1652854436546979	-0.4140353638446551	0.5941525788580858	0.01036991876028885	0.3485350548325961	0	0	0	0	0	0	-3.705865936713102	0	53.8197695233153	46.465865222137	0	0	0	-3.705865936713102	0	53.8197695233153	46.465865222137	0	0
122.0703125	0.04854547074049811	-0.1387046157585102	152.3240316498332	0	0.9399999999999999	0	0.3127386631645562	-0.1378026189893141	0.3406758484746902	0.5613041792163451	0.009796606032529548	0.3763266521531996	0	0	0.3793633594627014	0.1656578251454548	-0.4155368048557924	0.5953647659789404	0.01039107541669803	0.3530689152972757	0	0	0	0	0	0	-3.706638537722361	0	53.82277955710649	46.46534337273817	0	0	0	-3.706638537722361	0	53.82277955710649	46.46534337273817	0	0
